<svg enable-background="new 0 0 210 42" height="42" viewBox="0 0 210 42" width="210" xmlns="http://www.w3.org/2000/svg"><g fill="#fff"><path d="m103.981 14.962h4.75c1.629 0 2.773.273 3.428.825.659.547.985 1.31.985 2.282 0 1.036-.326 1.833-.985 2.392-.654.558-1.822.836-3.499.836h-4.679zm-10.848 26.362h18.567c.79 0 2.398-.148 4.823-.449 1.82-.219 3.181-.57 4.083-1.064 1.455-.797 2.604-1.883 3.443-3.248.839-1.367 1.258-2.898 1.258-4.598 0-2.107-.587-3.855-1.769-5.246-1.176-1.391-3.012-2.369-5.511-2.936 1.649-.537 2.903-1.271 3.763-2.206 1.283-1.408 1.925-3.091 1.925-5.05 0-2.336-.901-4.301-2.697-5.89-1.798-1.586-4.379-2.381-7.735-2.381h-20.15zm10.848-13.787h5.475c1.888 0 3.211.301 3.963.896.756.602 1.133 1.387 1.133 2.363 0 1.053-.383 1.893-1.144 2.514-.761.623-2.072.936-3.928.936h-5.5v-6.709z"/><path d="m37.35 41.281-.003-32.97h9.618l.038 32.97z"/><path d="m63.405 16.193h8.456c5.123 0 5.147 2.738 5.147 2.738v22.35h9.568v-22.896c0-10.095-10.804-10.095-10.804-10.095h-13.247-8.906v32.991l9.786-.041z"/><path d="m186.83 16.177h8.456c5.122 0 5.147 2.74 5.147 2.74v22.364h9.567v-22.911c0-10.101-10.804-10.101-10.804-10.101h-13.246-8.902v33.012l9.782-.041z"/><path d="m31.42 15.983v-7.692l-20.134-.007s-11.024.141-11.024 10.089c0 9.066 9.549 10.096 11.741 10.096l8.485-.031s3.094-.219 3.319 2.459c.19 2.262-2.17 2.936-3.392 2.91-2.529-.049-20.415 0-20.415 0v7.457h21.775s10.856-.201 10.856-9.809c0-7.904-6.893-10.089-11.685-10.089-3.373 0-8.205 0-8.205 0s-3.835.3-3.884-2.47c-.027-1.644 1.339-3.147 3.746-2.883h18.782"/></g><path d="m170.476 38.451c0 1.939-8.797 3.51-19.645 3.51-10.856 0-19.651-1.57-19.651-3.51 0-1.941 8.795-3.514 19.651-3.514 10.848.001 19.645 1.573 19.645 3.514z" fill="#a7a9ac"/><path d="m150.152.039c-11.25 0-20.373 7.128-20.373 15.924 0 8.793 9.123 15.92 20.373 15.92 11.253 0 20.373-7.127 20.373-15.92 0-8.796-9.12-15.924-20.373-15.924zm.317 24.008c-6.298 0-11.404-3.512-11.404-7.839 0-4.331 5.106-7.839 11.404-7.839 6.303 0 11.411 3.508 11.411 7.839 0 4.327-5.108 7.839-11.411 7.839z" fill="#fff"/></svg>